<svg width="1100" height="384" viewBox="0 0 1100 384" fill="none" xmlns="http://www.w3.org/2000/svg">
<path d="M57.8001 358.392L25.3628 360.976V145.364L57.8001 142.78V358.392ZM58.4695 122.325L0.949463 126.907V383.317L58.4695 378.736C71.5121 377.697 82.2135 366.141 82.2135 353.1V144.177C82.2135 131.136 71.5121 121.285 58.4695 122.325" fill="#F1ECC7"/>
<path d="M103.758 339.104L127.502 337.212V172.005L103.758 173.897V339.104Z" fill="#F1ECC7"/>
<path d="M202.915 243.251L173.151 245.622V188.434L202.915 186.063V243.251ZM226.659 236.678V187.851C226.659 174.809 215.958 164.959 202.915 165.999L149.407 170.261V335.467L173.151 333.577V265.022L190.542 263.637L206.927 330.887L231.678 328.914L213.617 259.121C221.309 254.497 226.659 246.042 226.659 236.678" fill="#F1ECC7"/>
<path d="M243.648 182.819L268.73 180.82V325.963L292.813 324.046V178.902L317.89 176.904V156.84L243.648 162.755V182.819Z" fill="#F1ECC7"/>
<path d="M413.275 149.243L389.199 151.16V230.422L358.765 232.847V153.584L335.021 155.476V231.727C335.021 244.77 345.723 254.287 358.765 253.247L389.199 250.824V296.635L358.765 299.06V274.314L335.021 276.206V296.939C335.021 309.982 345.723 319.831 358.765 318.792L389.531 316.342C402.573 315.302 413.275 303.748 413.275 290.706V248.907L436.815 247.031V226.632L413.275 228.508V149.243Z" fill="#F1ECC7"/>
<path d="M520.627 85.5124L502.566 86.9511C491.864 87.8031 486.514 92.2418 483.171 100.868V88.4964L458.758 90.4404V346.851L483.171 344.906V109.23L519.288 106.352V342.03L544.371 340.031V107.366C544.371 94.3231 533.67 84.4738 520.627 85.5124Z" fill="#F1ECC7"/>
<path d="M632.194 277.28L590.057 280.637V234.824L624.839 232.053V211.32L590.057 214.091V154.893L632.194 151.537V131.805L566.313 137.053V302.259L632.194 297.012V277.28Z" fill="#F1ECC7"/>
<path d="M650.854 130.319V295.526L711.053 290.731V270.999L674.599 273.903V128.428L650.854 130.319Z" fill="#F1ECC7"/>
<path d="M845.793 134.523L878.236 131.939V259.69L845.793 262.274V134.523ZM878.236 279.423C891.277 278.385 901.98 266.829 901.98 253.787V134.059C901.98 121.018 891.277 111.169 878.236 112.207L845.461 114.818C832.42 115.857 821.717 127.411 821.717 140.453V260.181C821.717 273.222 832.42 283.071 845.461 282.034L878.236 279.423Z" fill="#F1ECC7"/>
<path d="M126.81 155.806L125.634 23.9727L177.826 19.6313L177.657 0.683339L0.272522 16.1113L0.441854 35.0607L103.003 25.9767L104.179 157.81L126.81 155.806Z" fill="#F1ECC7"/>
<path d="M279.357 78.4603L311.163 75.927V57.1857L279.357 59.719V47.211L317.891 44.1403V26.099L257.644 30.8977V61.4483L231.957 63.4937V32.9443L210.244 34.6737V65.2243L177.825 67.8057V37.2563L156.113 38.9857V69.5363L135.859 71.1497V89.891L156.113 88.2777V153.942L177.825 152.211V86.547L210.244 83.9657V149.63L231.957 147.9V82.2363L257.644 80.1897V145.854L436.815 131.583V113.538L279.357 126.079V78.4603Z" fill="#F1ECC7"/>
<path d="M0.949158 100.858L93.5372 93.4829V74.5202L0.949158 81.8949V100.858Z" fill="#F1ECC7"/>
<path d="M327.854 74.8184L436.815 66.1397V47.177L327.854 55.8557V74.8184Z" fill="#F1ECC7"/>
<path d="M103.113 375.18L436.815 348.598V329.636L103.113 356.216V375.18Z" fill="#F1ECC7"/>
<path d="M566.312 338.284L1099.73 295.796V276.833L566.312 319.321V338.284Z" fill="#F1ECC7"/>
<path d="M236.996 262.947L257.395 261.323V240.923L236.996 242.548V262.947Z" fill="#F1ECC7"/>
<path d="M303.767 257.629L324.166 256.004V235.605L303.767 237.23V257.629Z" fill="#F1ECC7"/>
<path d="M751.617 204.807L778.37 233.531V267.645L751.617 269.777V204.807ZM690.653 206.413V226.811L727.872 223.847V267.655C727.872 280.698 738.574 290.547 751.617 289.507L778.37 287.378C791.752 286.311 802.116 274.783 802.116 261.742V234.318C802.116 228.967 801.445 223.337 797.77 219.281L751.617 170.118V142.025L778.37 139.894V159.289L802.116 157.397V142.014C802.116 128.973 791.752 119.095 778.37 120.162L751.617 122.293C738.574 123.331 727.872 134.886 727.872 147.929V168.999C727.872 175.021 729.881 181.213 732.554 184.342L748.798 201.781L727.872 203.447L690.653 206.413Z" fill="#F1ECC7"/>
<path d="M1075.98 209.825V243.939L1049.23 246.071V198.249V194.543V181.101L1075.98 209.825ZM1075.98 96.4561L1049.23 98.5867C1036.19 99.6254 1025.48 111.18 1025.48 124.223V145.293C1025.48 151.313 1027.49 157.507 1030.17 160.636L1046.41 178.076L1005.12 181.365V125.845C1005.12 112.803 994.414 102.953 981.371 103.992L966.658 105.164C955.956 106.016 950.606 110.455 947.263 119.081V106.709L923.519 108.6V273.807L947.263 271.915V126.773L980.702 124.109V269.252L1005.12 267.307V201.764L1025.48 200.14V243.949C1025.48 256.992 1036.19 266.841 1049.23 265.801L1075.98 263.672C1089.36 262.605 1099.73 251.077 1099.73 238.036V210.612C1099.73 205.261 1099.06 199.631 1095.38 195.575L1049.23 146.412V118.319L1075.98 116.188V135.583L1099.73 133.691V118.308C1099.73 105.267 1089.36 95.3908 1075.98 96.4561Z" fill="#F1ECC7"/>
<path d="M566.312 103.223V121.268L1099.73 78.7787V60.7347L566.312 103.223Z" fill="#F1ECC7"/>
</svg>
